<?xml version="1.0" encoding="UTF-8" standalone="no"?>
<!-- Created with Inkscape (http://www.inkscape.org/) -->

<svg
   width="297mm"
   height="297mm"
   viewBox="0 0 297 297"
   version="1.1"
   id="svg1"
   xml:space="preserve"
   xmlns="http://www.w3.org/2000/svg"
   xmlns:svg="http://www.w3.org/2000/svg"><defs
     id="defs1" /><g
     id="layer1"
     transform="translate(-5.9406522e-8,-130.78253)"><rect
       style="opacity:1;fill:#272727;fill-opacity:1;stroke:none;stroke-width:20.0508;stroke-linecap:butt;stroke-linejoin:miter"
       id="rect1"
       width="297"
       height="297"
       x="5.9406521e-08"
       y="130.78253"
       ry="0" /><path
       style="fill:#cccccc;stroke:none;stroke-width:4.52459"
       d="m 148.20508,190.46642 3.13251,-9.75993 c -7.42672,-3.07587 -12.07528,-0.63902 -18.79514,3.2533 V 172.5732 c -9.8588,1.14043 -14.92456,7.13343 -18.79514,16.26655 -8.0451,-4.67377 -17.672172,-6.16973 -15.662636,6.50663 -4.33932,1.53355 -10.765163,5.72912 -15.396758,4.20093 -5.584522,-1.84258 -10.06942,-9.73859 -14.363442,-13.65964 -10.832475,-9.89157 -26.389621,-15.90917 -40.721626,-11.80453 -40.989502,11.7392 -13.720159,74.08965 17.228888,79.82279 -5.455265,12.80062 -3.846979,28.52944 -9.418117,40.66639 -4.01136,8.73883 -11.427726,15.45039 -15.448716,24.39977 -3.425447,7.62392 -3.636928,16.69746 -7.262096,24.05969 -2.339917,4.75204 -7.3827605,7.12555 -9.9402049,11.79705 -6.169173,11.2687 -1.2959912,29.3914 7.6113569,37.34273 l 1.566264,-9.7599 12.530098,16.2665 1.566264,-19.51982 h 1.566263 l 10.963834,16.26654 1.566264,-21.1465 12.530108,11.38657 c 0,-22.70378 -3.935007,-41.72167 -29.758996,-42.29302 0.581096,-13.20693 5.94882,-24.20613 14.096361,-34.15973 0.621851,31.12272 24.69634,50.36035 46.987883,66.92128 11.052358,8.21101 21.919038,17.00417 36.024058,17.59945 17.09908,0.72172 31.1285,-8.37633 45.42159,-16.88655 30.59723,-18.21784 61.38343,-39.53946 56.38545,-80.64744 h -1.56627 c -7.6765,41.08663 -43.25896,64.44507 -76.74686,82.9594 -0.31567,-27.7609 -44.560098,-30.8074 -45.421596,-3.25329 -16.147792,-13.30898 -33.883514,-25.61131 -45.258475,-43.91968 -14.89789,-23.97866 -10.32355,-63.79985 9.234425,-82.9594 v -1.62665 C 47.491212,228.91881 61.672188,229.36057 76.156985,232.75944 74.664382,213.78038 64.476523,196.10931 47.964263,187.2131 v -1.62665 c 19.389791,6.41684 28.959591,23.85936 36.024039,42.29302 7.835459,-11.92788 2.921803,-26.22097 23.493918,-21.14652 l -3.13249,-14.63989 15.66263,8.13327 4.69877,-17.8932 h 1.56628 l 3.13249,14.63989 12.5301,-9.75992 c 0.78144,14.68811 16.4186,14.46876 28.19272,16.26655 v 24.39982 h 1.56627 c 3.07723,-23.61713 18.5819,-39.90104 39.15659,-48.79963 v 1.62665 c -17.68279,8.0269 -35.62934,30.83274 -29.75899,52.05295 2.09913,-1.41636 4.18104,-3.07297 6.33515,-4.39799 20.09138,-12.35868 7.84259,13.93249 12.00801,19.9604 2.54219,3.67888 7.78044,3.85803 11.08227,6.5405 4.58201,3.72258 6.86482,10.21569 9.73111,15.31015 h 1.56627 l -3.1325,-22.77318 c 13.16152,-0.71062 22.26941,13.02625 29.75292,22.77318 18.98907,24.73227 37.19591,52.36199 39.16263,112.92045 H 297 c -4.14844,-52.74759 -18.06297,-87.36691 -35.20704,-111.29381 -6.37572,-8.8982 -22.55018,-20.85741 -25.57627,-31.05203 -1.75789,-5.92214 6.25564,-14.04653 8.3522,-19.37426 7.27031,-18.4751 3.97749,-44.48479 -16.48444,-51.87598 -25.64495,-9.26336 -35.71992,15.72767 -54.95939,23.87769 -6.48144,2.7456 -17.94514,-2.33568 -24.91998,-2.90814 m -104.939607,-8.13329 -1.566264,1.62666 1.566264,-1.62666 m 3.132527,2.16888 c 1.211292,0 0.250897,0.80982 -0.522088,0.54223 L 46.398,184.50201 m 28.198764,94.86558 c -25.029265,8.21802 -14.484861,58.06484 12.518012,49.90543 25.178054,-7.60806 15.010474,-58.94404 -12.518012,-49.90543 m 87.727636,0.0816 c -25.99999,9.37646 -15.32868,61.0056 14.07342,49.04189 27.00681,-10.9891 15.84737,-59.83229 -14.07342,-49.04189 m -84.205457,31.77404 c 8.196344,-0.23607 8.243057,13.63327 0,13.63327 -7.496334,0 -7.381485,-13.42079 0,-13.63327 m 84.493557,0.18812 c 7.68672,0 9.5148,13.15847 1.40312,14.0977 -8.9268,1.03359 -10.40104,-14.0977 -1.40312,-14.0977 m 18.48409,1.05414 -4.69877,4.88 4.69877,-4.88 m 79.8794,21.1465 -7.83132,19.5199 c -27.59681,-24.18779 -54.09709,-0.17477 -50.12041,32.53305 l 12.5301,-11.38657 1.56628,21.1465 h 3.13249 l 6.26504,-16.26655 h 1.56628 l 1.56627,19.51981 10.96383,-17.89318 4.69881,11.38658 h 1.56627 c 6.53046,-11.67757 22.6309,-46.84546 14.09636,-58.55958 m -151.92749,48.79968 -4.69877,-3.25334 4.69877,3.25334 m 26.62645,-3.25334 -4.69878,4.87996 z"
       id="path1" /></g></svg>
