<?xml version="1.0" encoding="UTF-8" standalone="no"?>
<!-- Created with Inkscape (http://www.inkscape.org/) -->

<svg
   width="203.19121mm"
   height="115.02903mm"
   viewBox="0 0 203.19121 115.02903"
   version="1.1"
   id="svg1"
   xml:space="preserve"
   xmlns="http://www.w3.org/2000/svg"
   xmlns:svg="http://www.w3.org/2000/svg"><defs
     id="defs1" /><g
     id="layer1"
     transform="translate(-5.8815233,-27.770654)"><path
       style="fill:#ffffff;stroke:none;stroke-width:0.906699"
       d="m 148.0785,63.887984 c -0.84721,-0.717804 -0.83673,-1.064682 -1.93798,-1.796969 -7.13793,-4.746398 -9.37264,-13.126184 -4.96907,-18.633212 0.38946,-0.487051 0.70811,-0.925561 0.70811,-0.974466 0,-0.04891 -0.78267,0.04844 -1.73925,0.216308 -5.79476,1.016936 -10.11349,0.05738 -18.90055,-4.199421 -16.65183,-8.0668 -27.953336,-10.03467 -41.481979,-7.223029 -15.978673,3.320829 -27.621797,12.159216 -35.858037,27.220118 -4.660236,8.521766 -7.369783,12.106964 -12.843596,16.994254 l -1.790011,1.598211 1.085512,1.139304 c 1.674532,1.757518 2.25899,2.676358 2.861031,4.49788 0.218382,3.756164 -1.354614,1.199482 -1.354614,1.199482 -0.417308,-1.75391 -1.854613,-4.079176 -3.11627,-5.041492 -0.924038,-0.704796 -0.93185,-0.702266 -2.731411,0.885237 l -1.271295,1.121497 1.250884,1.397431 c 1.120021,1.251236 2.897877,4.368468 2.897877,5.081043 0,0 -0.9115,1.136938 -2.396495,-1.439965 -0.624394,-1.141798 -2.619721,-3.766093 -2.882654,-3.791336 -0.06674,-0.0063 -0.903386,0.755054 -1.859205,1.692128 -1.610018,1.578445 -2.011291,2.129165 -1.557931,2.138159 0.606249,0.01206 2.031138,1.613798 1.874529,2.107224 -0.237265,0.747564 -0.774104,0.656958 -1.846144,-0.31156 -1.260801,-1.139059 -1.834581,-0.797297 -4.05483,2.415238 l -0.674435,0.975853 1.52298,1.104514 c 0.837639,0.607479 1.712854,1.40982 1.944922,1.782963 2.052787,3.275723 0.139954,2.236591 0.139954,2.236591 -0.487371,-0.357067 -1.514509,-1.31252 -2.282528,-2.123236 -1.731725,-1.827999 -2.06921,-1.846178 -3.14194,-0.169226 -0.923492,1.443646 -1.89491,3.274118 -1.775706,3.34601 0.04219,0.02548 0.489437,0.257883 0.993881,0.516519 1.845708,0.946349 1.653269,2.360724 -0.200895,1.476533 -1.24969,-0.595928 -1.447058,-0.523012 -1.983786,0.732981 -0.535381,1.25284 -1.526745,4.19788 -1.4314264,4.25233 0.033031,0.0189 0.7943964,0.15413 1.6919134,0.30058 1.723073,0.28116 2.806254,0.81147 2.806254,1.37392 0,0.48908 -0.845384,0.68345 -1.743023,0.40075 -0.426746,-0.1344 -1.271924,-0.31389 -1.878173,-0.39887 l -1.1022735,-0.1545 -0.2632791,1.04122 c -0.1448044,0.57267 -0.3217458,2.03175 -0.3932028,3.24241 l -0.1299227,2.20119 0.7741986,-0.22203 c 1.2789855,-0.36682 2.3367005,-0.0426 2.3367005,0.71617 0,0.3195 -1.18718,0.74106 -2.0868722,0.74106 H 8.4236521 l 0.1508748,2.45895 c 0.1722801,2.80782 1.2657693,6.50371 2.5196991,8.51637 0.43835,0.70359 0.564693,0.68311 1.215324,-0.19691 0.581889,-0.78705 2.397745,-1.60293 3.045355,-1.43357 0.139435,-0.0298 0.791999,1.18221 0.07569,1.21352 -0.675494,-0.0366 -1.401945,0.48376 -2.340364,1.55256 -0.917147,1.04457 -0.915187,0.98052 -0.07021,2.29595 2.113102,3.28961 7.005029,7.3993 7.318934,6.14861 0.161022,-0.64156 0.935376,-1.60357 1.290766,-1.60357 0.569998,0 0.822063,0.67308 0.465646,1.2434 -0.932574,1.49227 -0.814696,1.71644 1.459607,2.77577 2.56604,1.19522 4.636038,1.87294 7.534146,2.46671 2.57622,0.5278 2.333656,0.61743 2.516918,-0.92992 0.263782,-2.22724 1.592432,-1.95029 1.465694,0.30551 -0.09133,1.62558 1.553834,1.94716 10.34325,2.02176 l 3.932509,0.0334 -0.154123,-1.47456 c -0.08477,-0.81102 -0.203332,-1.73359 -0.203332,-2.09027 0.77093,-0.90215 1.610278,-0.2135 1.610278,-0.2135 0.07196,0.29687 0.170147,1.24147 0.218205,2.0991 0.04805,0.85764 0.0992,1.59836 0.113642,1.64606 0.04288,0.14162 6.184573,-0.19871 8.868365,-0.49141 v -3e-5 l 2.484818,-0.27101 -0.152488,-1.1495 c -0.293873,-2.21532 1.278632,-2.1855 1.63306,0.031 0.202267,1.26491 -0.914294,1.33544 8.951496,-0.42678 4.772583,-0.85248 5.837511,-1.47864 5.537807,-2.88386 -0.279271,-1.30941 -0.165136,-1.78007 0.431663,-1.78007 0.608423,0 0.987046,0.55637 1.1364,1.66988 0.07148,0.53294 0.229534,0.96899 0.351226,0.96899 0.869216,0 10.169337,-3.19516 12.229281,-4.05586 0.807239,-0.33728 0.809971,-0.34383 0.549838,-1.31842 -0.181747,-0.68092 -0.185429,-1.09995 -0.01208,-1.37477 0.448266,-0.71065 0.71914,-0.57299 1.295996,0.65863 0.337571,0.72073 0.688855,1.16711 0.865202,1.09944 11.369095,-5.71182 14.021955,-11.3503 23.016635,-13.44395 7.30141,-1.69952 10.41282,1.69419 12.40564,3.48409 -3.07449,-3.97121 -10.24948,-8.29973 -21.18813,-0.76965 -8.16354,5.61971 -23.394841,10.97682 -27.431694,11.84543 -3.16858,0.68178 -8.569078,1.72777 -10.315592,1.98301 -0.989577,0.14461 -2.824792,0.41794 -4.078256,0.60741 -3.542241,0.53539 -13.265061,1.33249 -16.253531,1.33249 l -2.218575,0.072 -5.337719,-0.14787 c -14.059564,-0.38953 -22.012981,-3.4592 -26.236307,-10.12611 -2.393838,-2.93245 -2.161715,-4.81547 -2.161715,-4.81547 -1.930009,-6.07764 -0.872276,-14.53637 2.572009,-20.56845 0.515156,-0.902211 0.936648,-1.690604 0.936648,-1.751988 0,-0.06138 0.263816,-0.499845 0.586258,-0.974357 l 0.586258,-0.86276 1.786745,-2.306353 c 0.494326,-0.648199 2.024038,-2.26238 3.39936,-3.58705 l 5.541022,-4.497028 3.271031,-2.333185 c 0.02223,0.03373 0.860279,-0.216961 2.075866,-0.877455 1.215588,-0.660485 2.265428,-1.200887 2.332978,-1.200887 0.06755,0 0.682661,-0.255018 1.366909,-0.566696 2.583251,-1.176696 3.252172,-1.002782 3.846991,1.000198 1.399909,4.714002 3.765014,7.476832 10.149898,11.856736 7.653456,5.250123 8.612275,8.889135 4.058674,15.403925 -1.760265,2.51838 -1.641531,3.0398 1.963752,8.62363 3.74258,5.79647 5.271157,7.0409 8.330888,6.78226 2.517458,-0.2128 3.118106,0.003 6.095708,2.18619 1.245633,0.91346 1.555702,0.96814 1.328802,0.2343 -0.915437,-2.96066 -2.125536,-3.98019 -5.023232,-4.23213 -3.209473,-0.27903 -2.283551,-1.70532 1.107069,-1.70532 2.350292,0 3.269211,0.58817 5.22929,3.34716 0.811085,1.14167 2.959781,2.82985 3.093027,2.43011 0.388517,-1.16555 -2.367668,-4.75316 -3.862851,-5.0281 -1.40883,-0.25907 -1.440304,-0.28873 -1.141081,-1.07575 0.619787,-1.63016 3.406411,-0.53028 5.547739,2.1897 2.385769,3.03047 3.345532,3.15151 1.606816,0.20264 -2.115089,-3.58721 -2.838641,-3.8618 -8.581291,-3.2567 -4.806579,0.50647 -7.728634,-1.39746 -8.101578,-5.27875 -0.233496,-2.43005 0.866928,-3.54804 6.182398,-6.28108 18.242458,-9.379667 17.61918,-20.372746 14.273128,-22.919817 -3.161668,-2.406714 -2.938873,-4.9697 -0.177417,-3.26302 1.202684,2.723432 7.870846,4.360879 2.07378,14.862879 -1.036542,1.877811 -1.090606,1.760257 0.80955,1.760257 3.570503,0 8.325716,-0.984956 16.006865,-3.315518 1.71526,-0.520436 3.38855,-1.011958 3.71841,-1.092273 1.12776,-0.274585 1.18714,-0.4067 0.81959,-1.823629 -0.50013,-1.928059 -0.43506,-5.55413 0.14002,-7.802672 1.34933,-5.275846 6.04046,-11.156897 7.18845,-9.011846 0.38774,0.72448 0.32252,0.887994 -0.89116,2.234497 -6.39951,7.099826 -5.7703,16.921529 1.38088,21.555342 0.65041,0.42145 1.11539,0.87498 1.03328,1.00784 -0.0829,0.13414 -0.0301,0.16792 0.11867,0.076 0.14738,-0.0911 0.7848,0.0945 1.41648,0.41236 0.63167,0.31788 3.52349,1.34964 6.42624,2.2928 2.90277,0.94316 5.64895,1.91471 6.10264,2.15902 l 7.90796,6.82439 c 1.86547,3.01839 -0.26038,7.11896 -2.51948,4.85985 l -0.81566,-0.81564 v 0.95958 c 0,1.91226 2.12785,3.20021 3.60507,2.18208 h -2e-5 c 1.23467,-0.85096 1.87455,-2.02474 2.10192,-3.85565 0.31529,-2.53909 1.65253,-2.0887 1.79567,0.60478 0.0459,0.86312 0.13232,1.01852 0.56723,1.01957 0.28221,6.9e-4 0.50084,-0.1337 0.48584,-0.29863 -0.015,-0.16493 0.0588,-0.74888 0.16401,-1.29768 0.14345,-0.74826 0.0932,-1.18755 -0.20103,-1.75649 -0.30641,-0.59251 -0.33006,-0.83372 -0.10799,-1.10129 0.44746,-0.53916 0.66693,-0.41992 1.42383,0.77358 1.16795,1.84166 1.18021,-0.50576 0.0144,-2.7561 l -6.65974,-7.53817 -1.98126,-1.22846 c -11.34791,-7.036198 -14.48259,-10.212051 -10.09617,-10.228788 6.02669,-0.02303 10.6131,-4.693383 8.63062,-8.788635 -0.66243,-1.3684 -0.54999,-2.098746 0.33878,-2.200496 0.76685,-0.08777 1.51943,0.466968 1.89567,1.397396 1.90103,4.701108 -1.49218,9.887409 -7.36255,11.253164 l -1.66727,0.387886 1.18748,0.841879 1.18748,0.841879 1.43938,-0.43429 c 2.05895,-0.621225 5.0262,-1.801412 6.83708,-2.719375 3.45965,-1.753738 7.15646,-2.967581 9.57459,-3.143798 l 2.01781,-0.14704 -0.93827,-0.738298 c -4.13324,-3.252302 -6.51031,-6.707044 -7.5181,-10.926514 -1.11152,-4.653742 -0.85717,-6.968001 0.72048,-6.555444 0.51821,0.135516 0.57343,0.314117 0.94719,3.063483 0.71884,5.287779 3.42017,10.007611 7.13455,12.465681 0.55459,0.367005 0.95053,0.760829 0.87987,0.875155 -0.0706,0.114335 0.0186,0.151455 0.19829,0.08251 0.17971,-0.069 0.6981,0.123075 1.15197,0.426756 1.99736,1.336447 5.47322,2.76409 13.38233,5.496513 l 3.44102,1.1888 1.53685,-0.511433 c 1.82543,-0.607461 1.8429,-0.662978 0.47982,-1.52459 -1.47958,-0.935224 -2.11622,-1.673086 -2.02142,-2.342793 0.11694,-0.826002 0.9683,-0.83516 2.17255,-0.02339 0.56422,0.380351 1.65652,1.041733 2.42732,1.469732 l 1.40146,0.778183 1.47731,-0.364529 c 2.57839,-0.636222 5.64193,-0.993488 5.94242,-0.692999 0.40705,0.407044 0.0522,0.754401 -0.93504,0.915331 -4.28839,0.699031 -4.8878,1.030738 -3.18573,1.762952 1.509,0.649151 1.36795,0.66287 3.72948,-0.362788 1.93573,-0.840728 2.76389,-0.923138 2.76269,-0.274921 -5.1e-4,0.274703 -1.73108,1.28473 -2.99815,1.749848 -0.41244,0.151392 -0.33218,0.242542 0.5717,0.649296 1.05104,0.47298 1.05176,0.472971 1.67928,-0.01759 1.83282,-1.432794 2.45193,-1.785364 2.69981,-1.537472 0.40026,0.400244 0.0406,1.093742 -0.87357,1.684565 -1.16119,0.750457 -1.0999,0.847864 1.14055,1.813027 1.08853,0.468927 2.56427,1.275309 4.80732,2.354857 5.89409,2.83677 7.70732,3.44578 6.98832,2.34719 -0.95537,-1.45973 -0.68233,-3.559298 0.46288,-3.559298 0.64628,0 1.06515,0.723138 1.06515,1.838838 0,1.63216 2.28619,2.72613 3.50543,1.67739 1.51075,-1.29949 0.9809,-2.39994 -3.25238,-6.754839 -3.49438,-3.594787 -5.57433,-7.016894 -8.31742,-10.694683 -0.9349,-1.253457 -1.90577,-2.548904 -2.1575,-2.87877 -3.0466,-3.992196 -5.805,-8.912164 -6.85949,-12.234772 -2.47445,-7.796778 -3.35091,-9.877136 -5.5913,-13.271446 -5.56841,-8.436446 -17.47857,-15.4391 -25.61195,-15.0587 -0.37289,0.01744 -0.21007,0.254585 0.75349,1.097488 3.76041,3.289517 6.76496,14.239034 3.7377,13.621354 -0.15391,-0.03137 -0.22657,0.08178 -0.16145,0.251418 0.49796,1.297677 -2.77782,2.116118 -4.40425,1.100389 -0.81803,-0.510862 -1.08803,-0.03717 -0.73379,1.287259 0.68401,2.557444 1.68148,2.769634 -0.79047,2.297089 -1.93681,-2.015914 -1.15805,-1.585474 -1.6259,-2.43255 -0.82405,-1.492022 0.75774,-3.615028 2.35252,-3.488462 2.40532,0.190897 -0.51536,-6.337845 -3.68283,-8.232384 -1.92747,-1.152868 -1.36078,-2.280228 0.63629,-1.265825 2.90069,1.473405 5.234,5.246787 5.234,8.464336 0,2.097477 1.40816,1.845868 1.8153,-0.324353 1.32806,-7.079154 -7.874,-14.565974 -13.14166,-10.692091 -4.82272,3.546667 -3.54075,11.778715 2.4836,15.948217 0.87603,0.60631 1.6701,1.102374 1.76461,1.102374 0.0945,0 0.49256,0.269888 0.88457,0.599745 1.74607,2.328095 -1.28163,2.511901 -1.28163,2.511901 z m 37.34245,26.829791 c -5.61319,-2.229673 -14.07448,-3.127704 -19.68945,-2.089724 -1.68756,0.311959 -2.5413,-0.154402 -1.50922,-0.824425 2.28832,-1.485564 13.42808,-0.887088 19.61242,1.053657 1.23867,0.38872 2.38721,0.706753 2.55232,0.706753 0.68916,0 1.4367,0.881285 1.09589,1.291938 -0.39285,0.473342 -0.5487,0.462897 -2.06196,-0.138199 z M 170.30741,78.073937 c -5.15896,-2.388518 -3.33059,-10.169212 2.39897,-10.208916 5.75011,-0.0398 7.21926,8.097322 1.86692,10.340242 -1.0921,0.457638 -3.12923,0.394931 -4.26589,-0.131326 z m 5.5081,-3.228919 c 0.37098,-0.804675 1.14937,-3.258637 -0.95778,-3.930316 -2.23435,3.003433 -2.29433,0.711164 -2.23428,-1.021359 -3.54889,-0.0027 -4.63375,4.677362 -1.45934,6.296037 1.07698,0.54917 2.16569,0.384228 2.84598,0.189017 0.68028,-0.19521 1.43444,-0.728703 1.80542,-1.533379 z m -25.65105,46.957642 c 0.83817,-0.54919 0.74185,-0.7262 -0.48675,-0.8946 -0.59293,-0.0812 -1.62736,-0.42611 -2.29874,-0.76633 -0.67138,-0.34022 -1.49014,-0.58527 -1.81948,-0.54456 l -0.59879,0.074 0.56331,0.83964 c 1.02136,1.52235 3.31439,2.16072 4.64045,1.29184 z M 98.112397,121.6039 c 0.989576,-0.73591 -0.681218,-2.44461 -2.668312,-2.72885 -1.050666,-0.1503 -1.18417,-0.23566 -1.18417,-0.75718 0,-1.23963 4.008124,-1.0178 4.691807,0.25966 0.49982,0.93393 2.302118,1.07909 2.052228,0.1653 -0.46967,-1.71749 -2.496853,-2.97096 -4.191458,-2.59171 -4.831957,1.08137 -9.629553,-1.41466 -9.629553,-5.00993 0,-1.46537 0.282169,-1.82307 3.058919,-3.87778 3.159401,-2.33785 6.297082,-5.47037 6.297082,-6.28673 0,-0.0529 -0.674711,0.0473 -1.499358,0.22253 -2.007635,0.42658 -7.495807,0.87512 -8.711472,0.71198 -2.257913,-0.30302 -5.830126,4.36147 -7.472874,9.75783 -0.13886,0.45614 6.524819,7.20232 8.37169,8.47533 0.955809,0.65881 3.794373,1.1192 3.794373,0.6154 0,-0.83852 -0.500153,-1.48832 -1.14557,-1.48832 -1.254841,0 -1.789223,-1.29576 -0.652085,-1.58117 1.533147,-0.38479 3.476937,0.81939 3.476937,2.15397 0,0.43835 0.207567,0.58937 1.139513,0.82907 0.626732,0.16121 1.571329,0.54928 2.099103,0.86238 1.143877,0.67862 1.55337,0.72916 2.1732,0.26822 z m 45.333003,-0.55283 c -0.21924,-0.87351 -0.24033,-0.88336 -0.82334,-0.38417 -0.66661,0.57077 -0.63399,0.75173 0.15711,0.87158 0.36286,0.0549 0.69842,0.11611 0.74571,0.13587 0.0472,0.0198 0.0115,-0.2607 -0.0795,-0.62328 z m -70.392413,18.63698 c -5.187975,1.30692 -7.800357,1.72486 -15.737321,2.76715 -3.246411,0.42632 -14.257354,0.40882 -16.912772,0.20679 h 3.6e-5 C 32.171673,142.03575 26.455656,140.7413 21.825293,138.45492 1.729358,128.5319 0.42417271,102.17608 19.083144,83.08228 c 1.869248,-1.912809 5.861362,-5.542462 8.605219,-7.823925 2.098118,-1.744535 5.0871,-4.605905 6.357284,-6.085856 1.829784,-2.131976 5.157795,-6.70446 5.157795,-7.086507 0,-0.08586 0.199897,-0.442596 0.444215,-0.792827 0.244318,-0.350221 0.914878,-1.554381 1.490135,-2.675905 5.290154,-10.313694 12.306014,-18.120108 20.496065,-22.805587 2.114437,-1.209657 5.571982,-3.018244 6.477232,-3.388138 2.525457,-1.031926 4.929964,-1.899247 6.237335,-2.249844 0.791662,-0.212299 2.195061,-0.590526 3.118667,-0.840506 10.169104,-2.752327 23.502399,-1.818986 34.403019,2.408237 4.668,1.810234 6.01042,2.407473 11.29381,5.024592 5.54882,2.748599 7.61223,3.483509 10.6932,3.808508 2.25761,0.238147 2.96189,0.189651 9.70172,-0.668041 8.19404,-1.042749 17.76153,0.07475 22.54143,2.632866 0.44528,0.238308 0.565,0.09342 1.43369,-1.734997 2.4641,-5.1865 5.14074,-6.290017 8.60834,-3.549029 3.00273,2.37352 4.29559,7.178122 3.26896,12.148334 -0.45856,2.220035 -0.47502,2.169523 1.73336,5.317954 2.55462,3.642066 3.64641,5.969291 5.67056,12.087289 1.91231,5.779944 2.57268,7.258997 4.48298,10.040568 0.67961,0.989581 1.52366,2.258035 1.87568,2.818801 0.79175,1.261246 0.85127,1.261246 1.24426,0 1.48948,-4.780199 6.86761,-12.174803 8.8548,-12.174803 0.57918,0 0.70201,0.818813 0.16915,1.127599 -2.23951,1.297785 -5.66505,5.893318 -6.99288,9.381299 -0.33625,0.883261 -0.81049,2.11094 -1.05387,2.728167 -0.43848,1.111994 -0.43785,1.128931 0.0693,1.855061 0.66007,0.945053 0.7128,0.934426 1.42922,-0.288058 2.00694,-3.424576 10.88344,-9.396604 11.5161,-7.747917 0.13353,0.347982 -0.5275,1.10037 -0.96677,1.10037 -2.73078,0 -11.57023,8.064337 -10.24766,9.349066 0.45004,0.437165 0.50274,0.42273 2.37941,-0.651844 3.41712,-1.95663 8.23453,-2.993676 8.66733,-1.865815 0.20769,0.541227 -0.2825,0.83701 -1.39475,0.841635 -2.42491,0.01006 -7.50712,1.949185 -8.24723,3.146717 -0.27818,0.450104 2.59137,4.926973 6.48718,8.812629 8.87784,8.854727 1.87908,14.090837 -10.72093,8.020857 -2.68201,-1.29203 -3.32388,-1.49822 -6.07744,-1.95215 -1.69328,-0.27914 -2.49432,-0.20327 -3.30795,-0.3943 l -1.47934,-0.34733 -0.76618,0.89455 c -0.88256,1.03043 -3.15998,5.33405 -3.81113,7.20186 -0.35878,1.02914 -0.5351,1.25608 -0.93135,1.19871 -1.06865,-0.15469 0.70897,-4.76965 3.15761,-8.19763 0.96988,-1.3578 0.96568,-1.36364 -1.39028,-1.936261 -1.98031,-0.481312 -2.19868,-0.395139 -4.63882,1.830641 -1.7457,1.59234 -5.26482,5.82691 -5.52581,6.64922 -0.17725,0.55847 -1.02709,0.9017 -1.3739,0.55489 -0.51412,-0.51412 1.87667,-3.80272 5.22144,-7.18223 1.89743,-1.91715 2.55649,-2.724466 2.28437,-2.798281 -0.21036,-0.05703 -1.61672,-0.456595 -3.12525,-0.887876 l -2.74278,-0.78414 -1.45543,0.794613 c -2.25899,1.233346 -5.38092,3.376644 -6.42707,4.412384 -0.96151,0.95196 -1.94434,0.85563 -1.55743,-0.15264 0.18443,-0.4806 4.68879,-3.80129 6.29415,-4.64015 1.73499,-0.906581 1.73387,-0.907678 -2.41377,-2.371862 -1.97374,-0.696762 -4.34431,-1.55673 -5.26792,-1.911022 -3.44858,-1.322895 -3.75927,-1.388749 -6.59718,-1.398215 -7.04763,-0.02348 -8.42313,3.058671 -3.86885,8.669229 0.67649,0.83339 0.56699,1.24478 1.01783,1.87185 l 3.84596,7.7251 c 2.65599,3.02501 2.92408,8.23482 0.5053,9.81966 -0.29736,0.19484 -0.54064,0.52127 -0.54064,0.7254 0,2.446 -3.93864,4.36681 -6.71714,3.27585 -0.76309,-0.29963 -1.61862,-0.40767 -2.91861,-0.3686 -1.46068,0.0439 -2.03869,-0.0466 -2.80924,-0.43967 -0.53359,-0.27222 -1.37929,-0.4973 -1.87934,-0.50021 -3.25396,-0.0189 -5.58335,-3.77638 -4.1149,-6.6377 0.73752,-1.43709 1.47062,-1.61512 2.7216,-0.66094 1.00692,0.76802 1.14104,0.37934 0.45809,-1.32755 l -9.26995,-6.79869 c -11.10425,-3.38092 -14.1367,-4.94007 -16.98632,-8.733625 -0.57232,-0.761918 -1.10655,-1.467148 -1.18718,-1.567184 -0.18024,-0.223638 -2.7861,0.431969 -7.65516,1.925947 l -3.698121,1.134706 -0.436168,0.985276 c -1.130903,2.55464 -3.844805,5.42628 -7.70095,8.14854 -2.059881,1.45418 -2.209621,1.80805 -1.248449,2.95034 1.090987,1.29657 2.977777,2.03412 4.728177,1.84827 5.31272,-0.5641 6.153151,-0.44637 8.715081,1.22078 2.33699,1.52077 2.17414,3.55598 -0.18684,2.33506 -0.70737,-0.3658 -0.73321,-0.36293 -0.54234,0.0599 0.91914,2.03661 0.26618,4.27642 -1.18331,4.05906 -0.97327,-0.14595 -1.02481,-0.1209 -1.40903,0.68481 -0.841513,1.76468 -2.701366,2.07393 -5.200813,0.86478 l -1.669926,-0.80786 -1.672953,0.31565 c -3.325916,0.62757 -4.836394,0.0203 -8.306187,-3.33948 -1.319437,-1.27759 -3.105312,-2.93035 -3.968613,-3.67279 -2.563844,-2.20492 -3.038352,-3.59299 -2.049911,-5.99656 0.311998,-0.75867 0.527439,-1.3794 0.478759,-1.3794 -0.04868,0 -0.657364,0.36086 -1.35263,0.80193 -0.695266,0.44106 -2.6507,1.49066 -4.34541,2.33244 -4.379643,2.17539 -4.860341,2.79341 -3.841977,4.93946 0.9615,2.02621 2.587808,2.50922 6.33174,1.88054 4.971022,-0.83475 7.459177,0.4303 9.818813,4.99216 1.772722,3.42718 0.830216,6.06341 -1.686287,4.71662 -0.3809,-0.20385 -0.464023,-0.16898 -0.464023,0.19467 0,1.39277 -1.735534,2.02081 -3.316989,1.20032 l -1.136992,-0.58989 -0.62415,0.68121 c -1.055108,1.15157 -2.302791,0.97946 -4.626892,-0.63823 L 70.544463,127.4678 H 68.0657 c -4.210354,0 -5.964676,-1.35007 -10.443025,-8.03656 -3.960222,-5.91292 -4.216571,-7.50966 -1.752404,-10.91535 3.778752,-5.22256 3.094333,-7.84203 -3.132471,-11.988873 -6.294046,-4.191636 -8.108521,-6.063354 -10.274492,-10.598645 l -1.220737,-2.556075 -2.398975,1.193995 C 25.219009,91.347378 17.234735,101.68497 16.72079,113.20967 c -0.1808,4.05427 0.755365,8.20662 2.357486,10.45659 0.249465,0.35034 0.453572,0.70222 0.453572,0.78195 0,0.4117 1.634262,2.30313 3.060498,3.54209 5.574434,4.84251 16.073899,6.61486 33.008605,5.57201 v 4e-5 c 28.519228,-2.05176 45.763189,-9.74466 54.348919,-15.43057 8.69798,-5.76025 19.74982,-2.42255 21.34651,4.28351 -2.96179,-3.17845 -6.04783,-5.38551 -13.03084,-3.65555 -9.02473,2.23577 -12.48978,8.41335 -21.575831,12.85488 -9.987516,4.88219 -18.448748,6.7665 -23.636722,8.07343 z m 73.350633,-38.27607 c -1.3554,-1.67717 -2.44135,-4.334406 -2.46448,-6.030396 -0.0112,-0.824634 -0.0363,-1.499345 -0.0555,-1.499363 -0.0193,-1.8e-5 -1.16938,0.529648 -2.55576,1.177023 -1.38639,0.647383 -3.45204,1.530825 -4.59033,1.963212 -2.4469,0.929466 -2.56985,0.678419 1.62642,3.320654 1.69487,1.06719 3.31417,2.1095 3.59847,2.31626 l 6.13145,7.26649 c 0.65708,0.92694 1.22248,2.7752 1.22248,3.99615 0,1.24322 0.31115,1.37346 0.83964,0.35147 0.76772,-1.4846 2.11959,-0.51143 1.4652,1.05475 -0.42402,1.01482 -0.95219,1.31238 -2.72195,1.53345 -1.7759,0.22183 -1.95074,0.73804 -0.49416,1.45903 1.11082,0.54985 3.02127,0.68236 3.80333,0.26381 1.81429,-0.97098 1.57568,-4.2758 -0.50147,-6.94523 -0.66535,-0.85506 -1.2712,-1.79965 -1.34636,-2.09911 z m 37.2181,-3.086806 c 0,-0.338589 -2.03618,-1.107062 -2.57499,-0.971827 -0.8173,0.205122 -0.56833,0.376379 1.06737,0.734181 0.76322,0.16696 1.41466,0.314616 1.44765,0.328135 0.033,0.01351 0.0599,-0.0272 0.0599,-0.09049 z m -4.37109,-1.636773 c 0.22491,-0.174241 -0.17726,-0.457321 -1.50525,-1.059515 l -1.81214,-0.82175 -1.19361,0.396445 c -1.65104,0.54839 -1.53766,0.670803 1.26534,1.366096 2.40658,0.596962 2.61833,0.604705 3.24566,0.118724 z M 177.3761,47.98575 c 1.44504,-7.658384 -4.58524,-12.800512 -7.64748,-6.521159 -1.10098,2.25764 -1.17424,2.081264 1.61086,3.878167 1.24597,0.80388 1.92819,1.387676 1.82214,1.559269 -0.10644,0.172219 -0.0629,0.208414 0.11691,0.09726 0.17289,-0.106846 0.9084,0.353939 1.85549,1.162424 1.94227,1.658054 1.89533,1.661735 2.24208,-0.175963 z"
       id="path1" /></g></svg>
