<?xml version="1.0" encoding="UTF-8" standalone="no"?>
<!-- Created with Inkscape (http://www.inkscape.org/) -->

<svg
   width="105.74342mm"
   height="7.5328403mm"
   viewBox="0 0 105.74342 7.5328403"
   version="1.1"
   id="svg1"
   xml:space="preserve"
   xmlns="http://www.w3.org/2000/svg"
   xmlns:svg="http://www.w3.org/2000/svg"><defs
     id="defs1" /><g
     id="layer1"
     transform="translate(-73.248922,-139.25657)"><path
       style="fill:#242424;fill-opacity:1"
       d="m 151.83147,142.51539 c 9.14393,0.88135 26.06434,-3.7678 27.07294,-3.21262 0.38384,0.21128 -0.57217,0.85285 -1.26254,1.08558 -10.73893,3.62025 -13.88687,4.97757 -21.65313,5.42329 -11.04108,0.55414 -16.15818,0.16266 -19.92588,-0.14214 -3.268,-0.26437 -11.37123,-1.71018 -13.75608,-1.66782 -3.13173,0.0556 -11.91913,0.0161 -17.00848,0.67422 -8.144687,1.05326 -16.764903,2.38592 -24.321671,2.06481 -2.46447,-0.10472 -8.167641,-4.23472 -7.700667,-5.63976 1.052342,0 4.478163,0.012 5.420732,0 0.813188,0.52443 4.882199,0.9489 9.702496,0.7775 7.933998,-0.28212 9.333474,-1.17864 16.68682,-1.70037 7.35334,-0.52173 4.3159,-0.87051 15.72149,-0.41511 1.68276,0.0672 10.09354,1.62197 18.44438,2.14383 4.52794,0.28296 9.98502,0.35851 12.57959,0.60859 z"
       id="path2" /><path
       style="fill:#e6e6e6"
       d="m 151.83147,142.51539 c 9.14393,0.88135 26.06434,-3.7678 27.07294,-3.21262 0.38384,0.21128 -0.57217,0.85285 -1.26254,1.08558 -10.73893,3.62025 -13.88687,4.97757 -21.65313,5.42329 -11.04108,0.55414 -16.15818,0.16266 -19.92588,-0.14214 -3.268,-0.26437 -11.37123,-1.71018 -13.75608,-1.66782 -3.13173,0.0556 -11.91913,0.0161 -17.00848,0.67422 -8.144687,1.05326 -16.764903,2.38592 -24.321671,2.06481 -2.46447,-0.10472 -8.167641,-4.23472 -7.700667,-5.63976 1.052342,0 4.478163,0.012 5.420732,0 0.813188,0.52443 4.882199,0.9489 9.702496,0.7775 7.933998,-0.28212 9.333474,-1.17864 16.68682,-1.70037 7.35334,-0.52173 4.3159,-0.87051 15.72149,-0.41511 1.68276,0.0672 10.09354,1.62197 18.44438,2.14383 4.52794,0.28296 9.98502,0.35851 12.57959,0.60859 z m -64.008857,3.27123 c 0.501941,-0.71662 0.537385,-2.31418 0.06566,-2.95931 -0.281846,-0.38545 -0.958291,-0.27788 -3.638021,-0.47015 -3.498474,-0.25102 -3.668435,-0.28021 -4.30449,-0.42269 -0.715906,-0.16037 -1.403479,-0.52245 -1.778406,-0.83352 -0.698145,0 -3.903462,0.002 -4.542858,3.6e-4 -0.332475,0.5022 2.821835,3.10034 3.75665,3.59233 2.328153,1.2253 2.82288,1.40875 4.423609,1.51096 5.181181,0.33084 5.563872,0.23022 6.017859,-0.41794 z m 17.015477,-2.37933 c -0.0332,-0.57009 0.23289,-1.88136 -0.12824,-2.33558 -0.28166,-0.35427 -3.72795,-0.0289 -6.83874,0.4087 -3.11079,0.43756 -8.866021,0.92987 -8.866021,0.92987 l 0.16529,0.88107 c 0.103813,0.55337 0.0097,1.25341 -0.253008,1.88219 -0.230063,0.55062 -0.152636,0.83359 -0.152636,0.88858 0,0.18942 3.321074,-0.0994 8.933344,-0.99404 6.254371,-0.99702 7.201961,-0.59608 7.140011,-1.66079 z m 73.3111,-3.8372 c 0.42585,-0.14958 -11.95183,2.71613 -15.41129,2.97225 -3.45945,0.25611 -6.12909,0.7484 -6.12909,0.7484 v 0.82783 0.82784 c 0,0 2.41285,0.37671 6.36647,-0.46205 4.4999,-1.21781 9.51056,-2.92492 15.17391,-4.91427 z m -63.93616,3.72125 c 3.27074,-0.10101 7.37835,0.12126 7.49305,0.0504 0.24719,-0.15277 0.27524,-2.10376 0.0479,-2.69609 -0.14147,-0.36868 -4.84377,-0.4454 -9.24739,-0.3888 -4.40361,0.0566 -6.81827,0.57702 -6.81827,0.57702 l 0.1034,1.34763 -0.0896,1.58866 c 2.96838,-0.22778 4.72338,-0.37749 8.51091,-0.47879 3.78753,-0.1013 0,-3e-5 0,-3e-5 z m 20.99098,-0.70855 c -0.19745,-0.15785 -3.72629,-0.52486 -6.27142,-0.874 -2.40101,-0.32936 -6.11917,-0.9877 -6.11917,-0.9877 l 0.0136,1.41971 0.0598,1.19365 c 0,0 4.96314,0.6197 6.9803,0.921 2.18114,0.32579 5.10949,0.85315 5.72943,0.37987 0,0 0.74444,-1.75561 -0.39254,-2.0525 z m 19.96452,2.6128 c 0.26145,0 0.35594,-1.55526 0.16705,-1.70629 -0.19745,-0.15785 -6.15202,-0.25885 -9.82322,-0.45243 -3.6712,-0.19358 -8.8062,-0.4412 -8.8062,-0.4412 l 0.0355,1.16851 0.0136,1.05506 c 0,0 3.93904,0.55997 8.16218,0.4997 4.21139,-0.0601 9.81614,-0.12336 10.25109,-0.12336 z"
       id="path1" /></g></svg>
